# xmcd
#
# Track frame offsets:
#	150
#	19178
#	35110
#	52787
#	71722
#	87258
#	102414
#	117407
#	131325
#	146400
#	161618
#	174845
#	192019
#	206650
#	222464
#
# Disc length: 3218
#
# Revision: 1
# Processed by: cddbd v1.5.1PL0 Copyright (c) Steve Scherf et al.
# Submitted via: CDex 1.51
# Normalized: r0:TDELIM( - ),TSWAP
#
DISCID=d40c900f
DTITLE=Harlem House Rent Party - Jazz erlebt - In Wort Und Musik CD2
DYEAR=1900
DGENRE=Jazz
TTITLE0=Fats Waller - Handful Of Keys
TTITLE1=Louis Prima - House Rent Party Day
TTITLE2=Fats Waller - Ain't Misbehavin'
TTITLE3=Fats Waller - I'm Crazy 'Bout My Baby
TTITLE4=Fats Waller - Bennie Paine - After Youv'e Gone
TTITLE5=Fats Waller - Bennie Paine - St. Louis Blues
TTITLE6=Seven Gallon Jug Band - Wipe 'Em Off
TTITLE7=Fats Waller - The Joint Is Jumpin'
TTITLE8=James P. Johnson and Clarence Williams - How Could I Be Blue
TTITLE9=James P. Johnson and Clarence Williams - I've Found Â New Baby
TTITLE10=Clarence Williams And His Novelty Five - In The bottle Blues
TTITLE11=Clarence Williams And His Novelty Five - What You Want Me To Do
TTITLE12=Johnson's Jazzers - Skiddle-De-Scow
TTITLE13=James P. Johnson - Riffs
TTITLE14=Blind Willie Dunn's Gin Bottle Four - Blue Blood Blues
EXTD=
EXTT0=
EXTT1=
EXTT2=
EXTT3=
EXTT4=
EXTT5=
EXTT6=
EXTT7=
EXTT8=
EXTT9=
EXTT10=
EXTT11=
EXTT12=
EXTT13=
EXTT14=
PLAYORDER=
